<svg xmlns="http://www.w3.org/2000/svg" xmlns:xlink="http://www.w3.org/1999/xlink" width="40" zoomAndPan="magnify" viewBox="0 0 30 30.000001" height="40" preserveAspectRatio="xMidYMid meet" version="1.0"><defs><clipPath id="6060a37231"><path d="M 2.425781 0 L 27.828125 0 L 27.828125 29.03125 L 2.425781 29.03125 Z M 2.425781 0 " clip-rule="nonzero"/></clipPath></defs><g clip-path="url(#6060a37231)"><path fill="#000000" d="M 2.425781 26.121094 C 2.425781 26.503906 2.5 26.875 2.648438 27.230469 C 2.796875 27.585938 3.007812 27.898438 3.285156 28.171875 C 3.558594 28.445312 3.875 28.652344 4.234375 28.800781 C 4.59375 28.949219 4.96875 29.019531 5.355469 29.019531 L 19.035156 29.019531 C 19.425781 29.019531 19.796875 28.949219 20.15625 28.800781 C 20.515625 28.652344 20.832031 28.445312 21.109375 28.171875 C 21.382812 27.898438 21.59375 27.585938 21.742188 27.230469 C 21.890625 26.875 21.964844 26.503906 21.964844 26.121094 L 21.964844 25.152344 L 24.898438 25.152344 C 25.285156 25.152344 25.660156 25.078125 26.019531 24.933594 C 26.378906 24.785156 26.695312 24.574219 26.96875 24.304688 C 27.246094 24.03125 27.457031 23.71875 27.605469 23.363281 C 27.753906 23.007812 27.828125 22.636719 27.828125 22.253906 L 27.828125 2.910156 C 27.828125 2.527344 27.753906 2.15625 27.605469 1.800781 C 27.457031 1.445312 27.246094 1.132812 26.96875 0.859375 C 26.695312 0.589844 26.378906 0.378906 26.019531 0.230469 C 25.660156 0.0859375 25.285156 0.0117188 24.898438 0.0117188 L 11.21875 0.0117188 C 10.832031 0.0117188 10.457031 0.0859375 10.097656 0.230469 C 9.738281 0.378906 9.421875 0.589844 9.144531 0.859375 C 8.871094 1.132812 8.660156 1.445312 8.511719 1.800781 C 8.363281 2.15625 8.289062 2.527344 8.289062 2.910156 L 8.289062 3.878906 L 5.355469 3.878906 C 4.96875 3.878906 4.59375 3.953125 4.234375 4.101562 C 3.875 4.246094 3.558594 4.457031 3.285156 4.730469 C 3.007812 5 2.796875 5.3125 2.648438 5.667969 C 2.5 6.023438 2.425781 6.394531 2.425781 6.78125 Z M 10.242188 2.910156 C 10.242188 2.785156 10.265625 2.660156 10.316406 2.542969 C 10.367188 2.421875 10.4375 2.320312 10.527344 2.226562 C 10.621094 2.136719 10.726562 2.066406 10.84375 2.019531 C 10.964844 1.96875 11.089844 1.945312 11.21875 1.945312 L 24.898438 1.945312 C 25.027344 1.945312 25.152344 1.96875 25.269531 2.019531 C 25.390625 2.066406 25.496094 2.136719 25.589844 2.226562 C 25.679688 2.320312 25.75 2.421875 25.800781 2.542969 C 25.851562 2.660156 25.875 2.785156 25.875 2.910156 L 25.875 22.253906 C 25.875 22.378906 25.851562 22.503906 25.800781 22.621094 C 25.75 22.742188 25.679688 22.84375 25.589844 22.9375 C 25.496094 23.027344 25.390625 23.097656 25.269531 23.144531 C 25.152344 23.195312 25.027344 23.21875 24.898438 23.21875 L 21.964844 23.21875 L 21.964844 6.78125 C 21.964844 6.394531 21.890625 6.023438 21.742188 5.667969 C 21.59375 5.3125 21.382812 5 21.109375 4.730469 C 20.832031 4.457031 20.515625 4.246094 20.15625 4.101562 C 19.796875 3.953125 19.425781 3.878906 19.035156 3.878906 L 10.242188 3.878906 Z M 4.378906 6.78125 C 4.378906 6.652344 4.402344 6.527344 4.453125 6.410156 C 4.503906 6.292969 4.574219 6.1875 4.664062 6.097656 C 4.757812 6.003906 4.863281 5.9375 4.984375 5.886719 C 5.101562 5.835938 5.226562 5.8125 5.355469 5.8125 L 19.035156 5.8125 C 19.164062 5.8125 19.289062 5.835938 19.410156 5.886719 C 19.527344 5.9375 19.632812 6.003906 19.726562 6.097656 C 19.816406 6.1875 19.886719 6.292969 19.9375 6.410156 C 19.988281 6.527344 20.011719 6.652344 20.011719 6.78125 L 20.011719 26.121094 C 20.011719 26.25 19.988281 26.371094 19.9375 26.492188 C 19.886719 26.609375 19.816406 26.714844 19.726562 26.804688 C 19.632812 26.894531 19.527344 26.964844 19.410156 27.015625 C 19.289062 27.0625 19.164062 27.085938 19.035156 27.085938 L 5.355469 27.085938 C 5.226562 27.085938 5.101562 27.0625 4.984375 27.015625 C 4.863281 26.964844 4.757812 26.894531 4.664062 26.804688 C 4.574219 26.714844 4.503906 26.609375 4.453125 26.492188 C 4.402344 26.371094 4.378906 26.25 4.378906 26.121094 Z M 4.378906 6.78125 " fill-opacity="1" fill-rule="nonzero"/></g></svg>