<svg xmlns="http://www.w3.org/2000/svg" xmlns:xlink="http://www.w3.org/1999/xlink" width="50" zoomAndPan="magnify" viewBox="0 0 37.5 37.499999" height="50" preserveAspectRatio="xMidYMid meet" version="1.0"><defs><clipPath id="c54969fe0e"><path d="M 0.1875 0.1875 L 37.007812 0.1875 L 37.007812 37.007812 L 0.1875 37.007812 Z M 0.1875 0.1875 " clip-rule="nonzero"/></clipPath></defs><g clip-path="url(#c54969fe0e)"><path fill="#7d7c83" d="M 10.8125 0.1875 L 27.0625 0.1875 C 33.445312 0.1875 37.6875 4.742188 37.6875 11.28125 L 37.6875 26.59375 C 37.6875 33.132812 33.445312 37.6875 27.0625 37.6875 L 10.8125 37.6875 C 4.429688 37.6875 0.1875 33.132812 0.1875 26.59375 L 0.1875 11.28125 C 0.1875 4.75 4.4375 0.1875 10.8125 0.1875 Z M 27.0625 3.007812 L 10.8125 3.007812 C 6.042969 3.007812 3.007812 6.261719 3.007812 11.28125 L 3.007812 26.59375 C 3.007812 27.992188 3.238281 29.25 3.679688 30.339844 L 5.835938 27.722656 L 6.789062 26.550781 C 9.1875 23.578125 11.386719 22.292969 14.265625 23.5 C 14.703125 23.683594 15.078125 23.882812 15.554688 24.175781 L 16.792969 24.976562 C 18.03125 25.761719 18.621094 25.871094 19.527344 25.382812 C 20.328125 24.949219 20.894531 24.339844 21.75 23.019531 L 22.3125 22.121094 L 22.695312 21.507812 C 23.042969 20.964844 23.285156 20.609375 23.585938 20.21875 C 25.570312 17.652344 28.664062 16.816406 31.367188 18.441406 C 32.539062 19.148438 33.390625 19.847656 34.867188 21.257812 L 34.867188 11.28125 C 34.867188 6.257812 31.84375 3.007812 27.0625 3.007812 Z M 34.867188 25.152344 L 34.777344 25.070312 C 34.582031 24.890625 34.371094 24.695312 34.121094 24.453125 L 32.8125 23.191406 C 31.554688 21.996094 30.835938 21.410156 29.914062 20.855469 C 28.527344 20.019531 26.980469 20.4375 25.816406 21.941406 L 25.582031 22.257812 C 25.503906 22.367188 25.425781 22.484375 25.339844 22.613281 L 24.605469 23.777344 C 23.222656 26.019531 22.382812 27.042969 20.867188 27.859375 C 19.003906 28.871094 17.484375 28.660156 15.636719 27.570312 L 14.816406 27.050781 L 14.125 26.605469 C 13.742188 26.367188 13.46875 26.222656 13.175781 26.097656 C 11.917969 25.574219 10.800781 26.15625 9.261719 27.984375 L 5.871094 32.121094 C 5.691406 32.34375 5.5 32.570312 5.304688 32.808594 C 6.648438 34.128906 8.53125 34.867188 10.8125 34.867188 L 27.0625 34.867188 C 31.84375 34.867188 34.867188 31.617188 34.867188 26.59375 Z M 8.195312 12.9375 C 8.195312 10.246094 10.378906 8.058594 13.070312 8.058594 C 15.765625 8.058594 17.949219 10.242188 17.949219 12.9375 C 17.949219 15.628906 15.765625 17.816406 13.070312 17.816406 C 10.378906 17.816406 8.195312 15.628906 8.195312 12.9375 Z M 15.132812 12.9375 C 15.132812 11.800781 14.207031 10.878906 13.070312 10.878906 C 11.9375 10.878906 11.015625 11.800781 11.015625 12.9375 C 11.015625 14.074219 11.9375 14.996094 13.070312 14.996094 C 14.207031 14.996094 15.132812 14.074219 15.132812 12.9375 Z M 15.132812 12.9375 " fill-opacity="1" fill-rule="evenodd"/></g></svg>